/* XPM */
static char *swaram[]={
"27 18 2 1",
". c None",
"# c #004000",
".###.......##..........###.",
"#####.....###.........#####",
"######....##.........######",
"##.###...###.........###.##",
"##..###..##.........###..##",
"###..###.##........###..###",
"####..##.##........##..####",
".####..####.......##..####.",
"..####..###......##..####..",
"...####..##.....##..####...",
"....####..##...##..####....",
".....####..##.##..####.....",
"......####..###..####......",
".......####..#..####.......",
"........####...####........",
"###########################",
"##.......................##",
"###########################"};
